<svg xmlns="http://www.w3.org/2000/svg" viewBox="0 0 1077.17 255.12"><defs><style>.cls-1{fill:#003d8f;}</style></defs><title>IONOS.CLOUD Blu</title><g id="Ebene_3" data-name="Ebene 3"><path class="cls-1" d="M594.12,211.52a42.56,42.56,0,0,1-8.5-.86,44,44,0,0,1-29-20.73l-.15-.29a13,13,0,0,1,4.8-17.2,12.55,12.55,0,0,1,6.46-1.79,12.77,12.77,0,0,1,11.12,6.54c.13.22.28.47.44.71l1.35,1.84,1.82,1.84a17.69,17.69,0,0,0,8.29,4,18.21,18.21,0,0,0,14.3-3.27,17.27,17.27,0,0,0,7.18-12.93,17.86,17.86,0,0,0-5-13.88s-38.42-39.9-40.14-41.75a47.14,47.14,0,0,1-4.63-5.51c-5.42-7.68-7.12-16.74-6.28-25.7a41.75,41.75,0,0,1,5.41-17.77s1.76-3,2.28-3.73a48.36,48.36,0,0,1,8.78-8.95A45.36,45.36,0,0,1,580,47.67a42,42,0,0,1,54.79,16.91,12.45,12.45,0,0,1,1.33,9.65,12.73,12.73,0,0,1-6.07,7.85,12.21,12.21,0,0,1-6.23,1.69,12.68,12.68,0,0,1-11.05-6.5,16.69,16.69,0,0,0-11.18-7.91,17.35,17.35,0,0,0-13.56,3,16.5,16.5,0,0,0-6.41,12,16.82,16.82,0,0,0,4.57,13l39.28,40.5a43.5,43.5,0,0,1-31.38,73.68"/><path class="cls-1" d="M469.82,211.5a42.29,42.29,0,0,1-42.24-42.24V85.7a42.24,42.24,0,1,1,84.48,0v83.56a42.29,42.29,0,0,1-42.24,42.24m0-142.53A16.76,16.76,0,0,0,453.08,85.7v83.56A16.56,16.56,0,0,0,469.82,186a16.76,16.76,0,0,0,16.74-16.73V85.7A17,17,0,0,0,469.82,69"/><path class="cls-1" d="M305.61,129.64v69.1a12.75,12.75,0,0,1-25.5,0v-122Zm69.18,48.65V56.21a12.75,12.75,0,1,0-25.5,0v69.15ZM304.57,50.69l-.12-.24a13.06,13.06,0,0,0-11.54-6.92,11.84,11.84,0,0,0-2.57.27,12.48,12.48,0,0,0-10.07,12.41v2.91L350.4,204.5a13.14,13.14,0,0,0,11.32,7,11.22,11.22,0,0,0,2.92-.37,12.5,12.5,0,0,0,9.94-12.38V196l-70-145.3"/><path class="cls-1" d="M184.67,211.5a42.29,42.29,0,0,1-42.24-42.24V85.7a42.24,42.24,0,0,1,84.48,0v83.56a42.3,42.3,0,0,1-42.24,42.24m0-142.53A16.76,16.76,0,0,0,167.93,85.7v83.56a16.74,16.74,0,0,0,33.48,0V85.7A17,17,0,0,0,184.67,69"/><path class="cls-1" d="M75.19,211.43a13.8,13.8,0,0,1-13.86-14v-140l0-.27a13.89,13.89,0,0,1,27.29-3.46c.07.24.16.59.24,1l.09.6a14.23,14.23,0,0,1,.18,2.22s0,138.3,0,139.89a13.85,13.85,0,0,1-14,14.05"/><path class="cls-1" d="M709.85,211.61c-7.39,0-14.87-5-14.87-14.64V167.21c0-9.9,7.5-15.08,14.91-15.08s14.92,5.18,14.92,15.08a4.61,4.61,0,1,1-9.22,0,5.7,5.7,0,1,0-11.39,0V197c0,5.16,4.71,5.42,5.65,5.42.59,0,5.74-.15,5.74-5.23a4.61,4.61,0,1,1,9.22,0C724.81,206.54,717.1,211.61,709.85,211.61Z"/><path class="cls-1" d="M929.77,211.73c-7.32,0-14.73-5.2-14.73-15.13V156.45a4.44,4.44,0,1,1,8.88,0V196.6c0,4.61,3.15,6.25,5.85,6.25a6,6,0,0,0,4.05-1.52,6.52,6.52,0,0,0,1.83-5V156.45a4.44,4.44,0,1,1,8.88,0v39.89a15.19,15.19,0,0,1-4.62,11.46A14.74,14.74,0,0,1,929.77,211.73Z"/><path class="cls-1" d="M1005.17,211.83l-10.84-.12a4.43,4.43,0,0,1-4.39-4.43v-50.9a4.43,4.43,0,0,1,4.43-4.43l10.79,0c9.46,0,15.11,5.44,15.11,14.55v30.64C1020.27,206.19,1014.48,211.83,1005.17,211.83Zm-6.36-8.94,6.4.07c4.44,0,6.19-1.64,6.19-5.85V166.47c0-3.51-1-5.68-6.23-5.68h-6.36Z"/><path class="cls-1" d="M773.56,211.65a4.9,4.9,0,0,1-4.92-5V156.94a4.93,4.93,0,0,1,9.68-1.22c0,.08,0,.2.08.34l0,.22a5.38,5.38,0,0,1,.07.78s0,44.16,0,44.72H789a4.93,4.93,0,1,1,0,9.86H773.56Z"/><path class="cls-1" d="M853.28,211.66a15,15,0,0,1-15-15V167.06a14.92,14.92,0,0,1,2.49-8.27l6.55,13.6v24.29a5.88,5.88,0,0,0,5.94,5.94,6,6,0,0,0,5.93-5.64l4.89,10a14.92,14.92,0,0,1-10.82,4.64m0-50.54a6,6,0,0,0-5.93,5.57l-4.84-10a15,15,0,0,1,25.75,10.41v29.62a14.93,14.93,0,0,1-2.45,8.2l-6.6-13.63V167.06a6,6,0,0,0-5.93-5.94"/></g></svg>